<?xml version="1.0" encoding="UTF-8"?>
<svg width="700pt" height="700pt" version="1.1" viewBox="0 0 700 700" xmlns="http://www.w3.org/2000/svg" xmlns:xlink="http://www.w3.org/1999/xlink">
 <defs>
  <symbol id="o" overflow="visible">
   <path d="m29.312-1.75c-1.5117 0.78125-3.0898 1.3711-4.7344 1.7656-1.6367 0.40625-3.3398 0.60938-5.1094 0.60938-5.3125 0-9.5273-1.4844-12.641-4.4531-3.1055-2.9688-4.6562-7-4.6562-12.094s1.5508-9.125 4.6562-12.094c3.1133-2.9688 7.3281-4.4531 12.641-4.4531 1.7695 0 3.4727 0.19922 5.1094 0.59375 1.6445 0.39844 3.2227 0.99219 4.7344 1.7812v6.5938c-1.5312-1.0391-3.0391-1.8008-4.5156-2.2812-1.4805-0.48828-3.0391-0.73438-4.6719-0.73438-2.9375 0-5.2461 0.94531-6.9219 2.8281-1.6797 1.875-2.5156 4.4648-2.5156 7.7656 0 3.293 0.83594 5.8828 2.5156 7.7656 1.6758 1.875 3.9844 2.8125 6.9219 2.8125 1.6328 0 3.1914-0.23828 4.6719-0.71875 1.4766-0.48828 2.9844-1.2539 4.5156-2.2969z"/>
  </symbol>
  <symbol id="c" overflow="visible">
   <path d="m21.453-17.406c-0.67969-0.3125-1.3516-0.53906-2.0156-0.6875-0.65625-0.15625-1.3203-0.23438-1.9844-0.23438-1.9688 0-3.4844 0.63281-4.5469 1.8906-1.0547 1.2617-1.5781 3.0703-1.5781 5.4219v11.016h-7.6562v-23.922h7.6562v3.9219c0.97656-1.5625 2.1016-2.7031 3.375-3.4219 1.2812-0.71875 2.8125-1.0781 4.5938-1.0781 0.25 0 0.52344 0.011719 0.82812 0.03125 0.30078 0.023438 0.73438 0.070312 1.2969 0.14062z"/>
  </symbol>
  <symbol id="b" overflow="visible">
   <path d="m27.562-12.031v2.1875h-17.891c0.1875 1.793 0.83203 3.1367 1.9375 4.0312 1.1133 0.89844 2.6719 1.3438 4.6719 1.3438 1.6016 0 3.25-0.23438 4.9375-0.70312 1.6875-0.47656 3.4219-1.2031 5.2031-2.1719v5.8906c-1.8047 0.6875-3.6094 1.2031-5.4219 1.5469-1.8125 0.35156-3.6211 0.53125-5.4219 0.53125-4.3359 0-7.7031-1.0977-10.109-3.2969-2.3984-2.207-3.5938-5.2969-3.5938-9.2656 0-3.9062 1.1758-6.9727 3.5312-9.2031 2.3633-2.2383 5.6094-3.3594 9.7344-3.3594 3.7578 0 6.7695 1.1367 9.0312 3.4062 2.2578 2.2617 3.3906 5.2812 3.3906 9.0625zm-7.8594-2.5312c0-1.457-0.42969-2.6289-1.2812-3.5156-0.84375-0.89453-1.9492-1.3438-3.3125-1.3438-1.4922 0-2.6992 0.41797-3.625 1.25-0.91797 0.83594-1.4922 2.0391-1.7188 3.6094z"/>
  </symbol>
  <symbol id="a" overflow="visible">
   <path d="m14.391-10.766c-1.5938 0-2.793 0.27344-3.5938 0.8125-0.80469 0.54297-1.2031 1.3398-1.2031 2.3906 0 0.96875 0.32031 1.7305 0.96875 2.2812 0.64453 0.54297 1.5469 0.8125 2.7031 0.8125 1.4375 0 2.6445-0.51562 3.625-1.5469 0.98828-1.0312 1.4844-2.3203 1.4844-3.875v-0.875zm11.688-2.8906v13.656h-7.7031v-3.5469c-1.0312 1.4492-2.1875 2.5078-3.4688 3.1719s-2.8398 1-4.6719 1c-2.4805 0-4.4961-0.72266-6.0469-2.1719-1.543-1.4453-2.3125-3.3203-2.3125-5.625 0-2.8125 0.96094-4.8672 2.8906-6.1719 1.9375-1.3125 4.9688-1.9688 9.0938-1.9688h4.5156v-0.60938c0-1.207-0.48047-2.0938-1.4375-2.6562-0.94922-0.5625-2.4375-0.84375-4.4688-0.84375-1.6367 0-3.1562 0.16797-4.5625 0.5-1.4062 0.32422-2.7188 0.8125-3.9375 1.4688v-5.8281c1.6445-0.40625 3.2891-0.70703 4.9375-0.90625 1.6562-0.20703 3.3047-0.3125 4.9531-0.3125 4.3203 0 7.4375 0.85547 9.3438 2.5625 1.9141 1.6992 2.875 4.4609 2.875 8.2812z"/>
  </symbol>
  <symbol id="j" overflow="visible">
   <path d="m12.031-30.719v6.7969h7.875v5.4688h-7.875v10.141c0 1.1172 0.21875 1.8711 0.65625 2.2656 0.4375 0.38672 1.3125 0.57812 2.625 0.57812h3.9375v5.4688h-6.5625c-3.0234 0-5.1641-0.62891-6.4219-1.8906-1.2617-1.2578-1.8906-3.3984-1.8906-6.4219v-10.141h-3.7969v-5.4688h3.7969v-6.7969z"/>
  </symbol>
  <symbol id="i" overflow="visible">
   <path d="m19.953-20.422v-12.812h7.6875v33.234h-7.6875v-3.4531c-1.0547 1.4062-2.2148 2.4375-3.4844 3.0938-1.2734 0.65625-2.7422 0.98438-4.4062 0.98438-2.9492 0-5.3711-1.1719-7.2656-3.5156-1.8867-2.3438-2.8281-5.3594-2.8281-9.0469s0.94141-6.7031 2.8281-9.0469c1.8945-2.3438 4.3164-3.5156 7.2656-3.5156 1.6562 0 3.1172 0.33594 4.3906 1 1.2812 0.65625 2.4453 1.6836 3.5 3.0781zm-5.0469 15.484c1.6445 0 2.8945-0.59766 3.75-1.7969 0.86328-1.1953 1.2969-2.9297 1.2969-5.2031 0-2.2812-0.43359-4.0195-1.2969-5.2188-0.85547-1.1953-2.1055-1.7969-3.75-1.7969-1.625 0-2.8711 0.60156-3.7344 1.7969-0.85547 1.1992-1.2812 2.9375-1.2812 5.2188 0 2.2734 0.42578 4.0078 1.2812 5.2031 0.86328 1.1992 2.1094 1.7969 3.7344 1.7969z"/>
  </symbol>
  <symbol id="h" overflow="visible">
   <path d="m16.406-4.9375c1.6328 0 2.8828-0.59766 3.75-1.7969 0.86328-1.1953 1.2969-2.9297 1.2969-5.2031 0-2.2812-0.43359-4.0195-1.2969-5.2188-0.86719-1.1953-2.1172-1.7969-3.75-1.7969-1.6367 0-2.8906 0.60547-3.7656 1.8125-0.875 1.1992-1.3125 2.9336-1.3125 5.2031 0 2.2617 0.4375 3.9961 1.3125 5.2031 0.875 1.1992 2.1289 1.7969 3.7656 1.7969zm-5.0781-15.484c1.0508-1.3945 2.2188-2.4219 3.5-3.0781 1.2812-0.66406 2.7539-1 4.4219-1 2.9453 0 5.3672 1.1719 7.2656 3.5156 1.8945 2.3438 2.8438 5.3594 2.8438 9.0469s-0.94922 6.7031-2.8438 9.0469c-1.8984 2.3438-4.3203 3.5156-7.2656 3.5156-1.668 0-3.1406-0.33594-4.4219-1s-2.4492-1.6914-3.5-3.0781v3.4531h-7.6562v-33.234h7.6562z"/>
  </symbol>
  <symbol id="g" overflow="visible">
   <path d="m0.53125-23.922h7.6562l6.4219 16.234 5.4688-16.234h7.6562l-10.062 26.188c-1.0117 2.6641-2.1953 4.5234-3.5469 5.5781-1.3438 1.0625-3.1211 1.5938-5.3281 1.5938h-4.4219v-5.0156h2.3906c1.3008 0 2.2422-0.21094 2.8281-0.625 0.59375-0.40625 1.0547-1.1484 1.3906-2.2188l0.20312-0.65625z"/>
  </symbol>
  <symbol id="f" overflow="visible">
   <path d="m23.375-5.8125h-12.859l-2.0312 5.8125h-8.2656l11.812-31.891h9.7969l11.812 31.891h-8.2656zm-10.812-5.9219h8.7344l-4.3594-12.688z"/>
  </symbol>
  <symbol id="e" overflow="visible">
   <path d="m3.6719-33.234h7.6562v33.234h-7.6562z"/>
  </symbol>
  <symbol id="n" overflow="visible">
   <path d="m19.422-33.234v5.0156h-4.2344c-1.0859 0-1.8398 0.19922-2.2656 0.59375-0.42969 0.38672-0.64062 1.0625-0.64062 2.0312v1.6719h6.5312v5.4688h-6.5312v18.453h-7.6406v-18.453h-3.8125v-5.4688h3.8125v-1.6719c0-2.6016 0.72266-4.5234 2.1719-5.7656 1.457-1.25 3.707-1.875 6.75-1.875z"/>
  </symbol>
  <symbol id="d" overflow="visible">
   <path d="m27.734-14.562v14.562h-7.7031v-11.156c0-2.0625-0.046875-3.4844-0.14062-4.2656-0.085937-0.78125-0.24219-1.3594-0.46875-1.7344-0.30469-0.5-0.71094-0.88281-1.2188-1.1562-0.51172-0.28125-1.0938-0.42188-1.75-0.42188-1.5938 0-2.8516 0.61719-3.7656 1.8438-0.90625 1.2305-1.3594 2.9375-1.3594 5.125v11.766h-7.6562v-23.922h7.6562v3.5c1.1445-1.3945 2.3633-2.4219 3.6562-3.0781 1.3008-0.66406 2.7383-1 4.3125-1 2.7578 0 4.8516 0.85156 6.2812 2.5469 1.4375 1.6875 2.1562 4.1523 2.1562 7.3906z"/>
  </symbol>
  <symbol id="m" overflow="visible">
   <path d="m2.4531-31.891h26.812v4.9688l-17.109 20.703h17.594v6.2188h-27.781v-4.9844l17.109-20.688h-16.625z"/>
  </symbol>
  <symbol id="l" overflow="visible">
   <path d="m3.4219-9.3125v-14.609h7.6875v2.3906c0 1.293-0.011719 2.918-0.03125 4.875-0.011719 1.9609-0.015625 3.2656-0.015625 3.9219 0 1.9297 0.046875 3.3125 0.14062 4.1562 0.10156 0.84375 0.28125 1.4609 0.53125 1.8438 0.3125 0.5 0.71875 0.88672 1.2188 1.1562 0.50781 0.27344 1.0938 0.40625 1.75 0.40625 1.5938 0 2.8438-0.60938 3.75-1.8281 0.91406-1.2266 1.375-2.9297 1.375-5.1094v-11.812h7.6406v23.922h-7.6406v-3.4531c-1.1562 1.3867-2.3828 2.4141-3.6719 3.0781-1.2812 0.66406-2.6992 1-4.25 1-2.7734 0-4.8828-0.84766-6.3281-2.5469-1.4375-1.6953-2.1562-4.1602-2.1562-7.3906z"/>
  </symbol>
  <symbol id="k" overflow="visible">
   <path d="m3.6719-33.234h7.6562v18.094l8.7969-8.7812h8.8906l-11.688 10.969 12.594 12.953h-9.2656l-9.3281-9.9688v9.9688h-7.6562z"/>
  </symbol>
 </defs>
 <g>
  <path d="m261 87.5c41.633 0 78.617 7.3594 101.51 19.066 6.5977 3.3789 11.926 7.043 15.531 11.105 2.3633 2.6602 3.9531 5.3711 3.9531 8.3281s-1.5938 5.6719-3.9531 8.3281c-3.6055 4.0586-8.9336 7.7266-15.531 11.105-22.891 11.707-59.875 19.066-101.51 19.066-41.641 0-78.629-7.3594-101.51-19.066-6.6055-3.3789-11.934-7.043-15.539-11.105-2.3633-2.6602-3.9531-5.3711-3.9531-8.3281s1.5938-5.6719 3.9531-8.3281c3.6055-4.0586 8.9336-7.7266 15.539-11.105 22.883-11.707 59.867-19.066 101.51-19.066z" fill-rule="evenodd"/>
  <path d="m450.53 188.61c-16.23-2.8164-32.828-2.8164-49.051 0l-0.078124 34.754c-11.691 2.7109-22.863 7.3398-33.047 13.695l-24.621-24.527c-13.477 9.4766-25.207 21.211-34.684 34.684l24.516 24.633c-6.3516 10.184-10.973 21.352-13.684 33.047l-34.754 0.070312c-2.8281 16.23-2.8281 32.82 0 49.051l34.754 0.070313c2.7109 11.699 7.332 22.863 13.684 33.059l-24.516 24.621c9.4766 13.477 21.211 25.207 34.684 34.684l24.621-24.527c10.184 6.3594 21.359 10.98 33.047 13.695l0.078124 34.754c16.223 2.8281 32.82 2.8281 49.051 0l0.070312-34.754c11.699-2.7109 22.863-7.332 33.047-13.695l24.621 24.527c13.477-9.4766 25.219-21.211 34.695-34.684l-24.527-24.621c6.3516-10.195 10.98-21.359 13.695-33.059l34.746-0.070313c2.8281-16.23 2.8281-32.82 0-49.051l-34.746-0.070312c-2.7109-11.699-7.3398-22.863-13.695-33.047l24.527-24.633c-9.4766-13.477-21.219-25.207-34.695-34.684l-24.621 24.527c-10.184-6.3516-21.352-10.98-33.047-13.695zm-24.527 96.898c24.273 0 43.977 19.715 43.977 43.984 0 24.273-19.703 43.984-43.977 43.984-24.281 0-43.984-19.715-43.984-43.984 0-24.273 19.703-43.984 43.984-43.984z" fill-rule="evenodd"/>
  <path d="m264.8 362.48c-1.2617 0.015626-2.5273 0.027344-3.7969 0.027344-41.641 0-78.629-7.3672-101.51-19.074-6.6055-3.3789-11.934-7.043-15.539-11.094-2.3633-2.668-3.9531-5.3711-3.9531-8.3281v-32.488c24.012 15.812 69.16 26.984 121 26.984h0.36719c-0.88281 13.117-0.18359 26.312 2.0742 39.305 0.28906 1.6289 0.74219 3.1953 1.3555 4.6719z" fill-rule="evenodd"/>
  <path d="m264.82 296.48c-1.2695 0.015626-2.5391 0.027344-3.8164 0.027344-41.641 0-78.629-7.3672-101.51-19.066-6.6055-3.3789-11.934-7.0508-15.539-11.105-2.3633-2.6602-3.9531-5.3711-3.9531-8.3281v-32.488c23.879 15.715 68.645 26.863 120.13 26.984h2.8086c8.375-0.042969 16.574-0.375 24.527-0.96094 0.82422 4.1289 2.8359 8.0508 5.9844 11.219l13.09 13.133c-1.043 2.3203-2.0195 4.6719-2.9219 7.0508 0-0.007812-18.543 0.035156-18.543 0.035156-9.0039 0.015626-16.895 5.4844-20.258 13.5z" fill-rule="evenodd"/>
  <path d="m382 178.38c-1.6094 3.0625-2.5195 6.5352-2.5273 10.195l-0.035156 18.551c-2.3789 0.90234-4.7266 1.8711-7.0508 2.9141 0.007812 0-13.133-13.082-13.133-13.082-7.5586-7.5352-19.441-8.5469-28.184-2.4062-13.57 9.5469-25.609 21.078-35.734 34.203-10.922 1.1367-22.434 1.75-34.328 1.75-41.641 0-78.629-7.3594-101.51-19.066-6.6055-3.3789-11.934-7.0508-15.539-11.105-2.3633-2.6602-3.9531-5.3711-3.9531-8.3281v-32.488c24.012 15.812 69.16 26.984 121 26.984s96.984-11.172 121-26.984v18.863z" fill-rule="evenodd"/>
  <use x="70" y="691.25" xlink:href="#o"/>
  <use x="102.109375" y="691.25" xlink:href="#c"/>
  <use x="123.683594" y="691.25" xlink:href="#b"/>
  <use x="153.355469" y="691.25" xlink:href="#a"/>
  <use x="182.878906" y="691.25" xlink:href="#j"/>
  <use x="203.792969" y="691.25" xlink:href="#b"/>
  <use x="233.464844" y="691.25" xlink:href="#i"/>
  <use x="280.011719" y="691.25" xlink:href="#h"/>
  <use x="311.328125" y="691.25" xlink:href="#g"/>
  <use x="355.078125" y="691.25" xlink:href="#f"/>
  <use x="388.9375" y="691.25" xlink:href="#e"/>
  <use x="403.9375" y="691.25" xlink:href="#n"/>
  <use x="422.96875" y="691.25" xlink:href="#a"/>
  <use x="452.492188" y="691.25" xlink:href="#d"/>
  <use x="498.871094" y="691.25" xlink:href="#m"/>
  <use x="530.59375" y="691.25" xlink:href="#l"/>
  <use x="561.738281" y="691.25" xlink:href="#e"/>
  <use x="576.734375" y="691.25" xlink:href="#k"/>
  <use x="605.832031" y="691.25" xlink:href="#a"/>
  <use x="635.351562" y="691.25" xlink:href="#c"/>
  <use x="656.929687" y="691.25" xlink:href="#d"/>
  <use x="688.074219" y="691.25" xlink:href="#a"/>
 </g>
</svg>
