<svg width="300" height="300" viewBox="0 0 300 300" fill="none" xmlns="http://www.w3.org/2000/svg">
<path d="M137.5 212.5H162.5V160L182.5 180L200 162.5L150 112.5L100 162.5L117.5 180L137.5 160V212.5ZM50 250C43.125 250 37.2375 247.55 32.3375 242.65C27.4375 237.75 24.9917 231.867 25 225V75C25 68.125 27.45 62.2375 32.35 57.3375C37.25 52.4375 43.1334 49.9917 50 50H125L150 75H250C256.875 75 262.763 77.45 267.663 82.35C272.562 87.25 275.008 93.1334 275 100V225C275 231.875 272.55 237.763 267.65 242.663C262.75 247.563 256.867 250.008 250 250H50ZM50 75V225H250V100H139.688L114.688 75H50Z" fill="#61CDFE"/>
</svg>
